<svg xmlns="http://www.w3.org/2000/svg" viewBox="0 0 48.07 47.6"><defs><style>.cls-1{fill:#7cba42;}.cls-2{fill:#00b4c8;}.cls-3{fill:none;stroke:#7a7a7a;stroke-linecap:round;stroke-linejoin:round;}</style></defs><title>Choosing-color</title><g id="Layer_2" data-name="Layer 2"><g id="Layer_1-2" data-name="Layer 1"><path class="cls-1" d="M33.93,1l.44,2.58.12.68.67.13a10.4,10.4,0,0,1,3,1.19l.54.31.52-.36,2-1.41L44,6.83l-1.41,2-.35.51.3.54A15.48,15.48,0,0,1,43.82,13l.18.59.6.11,2.47.44v3.74l-2.47.44-.67.12-.13.67a9.26,9.26,0,0,1-1.17,3l-.35.55.38.55,1.41,2-2.71,2.7-2-1.41-.51-.35-.54.3a15.24,15.24,0,0,1-3.1,1.33L34.6,28l-.11.6L34.05,31H30.31l-.44-2.47-.11-.6-.59-.18a15.24,15.24,0,0,1-3.1-1.33l-.54-.3-.51.35L23,27.9l-2.7-2.7,1.41-2,.35-.52-.3-.54A15.82,15.82,0,0,1,20.42,19l-.18-.59-.6-.11-2.47-.44V14.14l2.47-.44.67-.12.13-.67a10.51,10.51,0,0,1,1.19-3l.31-.54-.36-.51-1.41-2,2.71-2.71,2,1.41.51.36L26,5.58a16.08,16.08,0,0,1,3.1-1.33l.59-.17.11-.61L30.19,1h3.74m.84-1H29.35l-.59,3.3a16.23,16.23,0,0,0-3.29,1.41L22.76,2.83,18.88,6.71l1.88,2.71a11.41,11.41,0,0,0-1.3,3.3l-3.29.58v5.42l3.29.59a16.68,16.68,0,0,0,1.42,3.3L19,25.31l3.89,3.89,2.71-1.89a16.85,16.85,0,0,0,3.29,1.42L29.47,32h5.42l.59-3.29a16.85,16.85,0,0,0,3.29-1.42l2.71,1.89,3.89-3.89-1.89-2.7a10.3,10.3,0,0,0,1.3-3.3l3.29-.59V13.3l-3.29-.58a16.68,16.68,0,0,0-1.42-3.3l1.89-2.71L41.36,2.83,38.65,4.71a11.24,11.24,0,0,0-3.29-1.3L34.77,0Z"/><path class="cls-1" d="M32.12,9.89A6.21,6.21,0,0,1,38.3,16a6.59,6.59,0,0,1-1.82,4.36,6.16,6.16,0,0,1-10.54-4.24,6.56,6.56,0,0,1,1.82-4.35,6.06,6.06,0,0,1,4.36-1.83m0-1A7,7,0,0,0,27.06,11a7.52,7.52,0,0,0-2.12,5.06A7.16,7.16,0,0,0,37.18,21,7.55,7.55,0,0,0,39.3,16a7.18,7.18,0,0,0-7.18-7.06Z"/><path class="cls-2" d="M8.87,25.67l.81,1.38a1,1,0,0,0,.86.49h.08a4.61,4.61,0,0,1,.53,0c.5,0,1.06,0,1.55.08h.08a1,1,0,0,0,.83-.45l.88-1.32L17,26.92l-.35,1.51a1,1,0,0,0,.35,1,6.62,6.62,0,0,1,1.43,1.44,1,1,0,0,0,.83.45.69.69,0,0,0,.2,0L21,31l.93,2.33-1.37.81a1,1,0,0,0-.49.94A13.19,13.19,0,0,1,20,37.12a1,1,0,0,0,.45.92l1.31.88-1.07,2.46L19.18,41A.91.91,0,0,0,19,41a1,1,0,0,0-.78.38,6.14,6.14,0,0,1-1.45,1.42,1,1,0,0,0-.42,1l.34,1.57-2.47,1-.81-1.3a1,1,0,0,0-.85-.47h-.08l-.53,0c-.5,0-1-.05-1.43-.08h-.08a1,1,0,0,0-.83.44l-.88,1.32L6.22,45.23l.35-1.5a1,1,0,0,0-.35-1,6.62,6.62,0,0,1-1.43-1.44A1,1,0,0,0,4,40.83a.65.65,0,0,0-.2,0l-1.58.33-1-2.46,1.3-.82A1,1,0,0,0,3,37a12.53,12.53,0,0,1,.07-2.07A1,1,0,0,0,2.62,34L1.3,33.1l1.07-2.46L3.88,31a.9.9,0,0,0,.23,0,1,1,0,0,0,.78-.37,6.41,6.41,0,0,1,1.45-1.43,1,1,0,0,0,.42-1l-.33-1.57,2.44-.94m.43-1.24L5.27,26l.51,2.4A7.55,7.55,0,0,0,4.11,30l-2.32-.54-1.74,4,2,1.35A13.21,13.21,0,0,0,2,37.06L0,38.31l1.56,4L4,41.83A7.6,7.6,0,0,0,5.6,43.5l-.55,2.31,4,1.75,1.35-2c.42,0,1,.08,1.51.08a6.08,6.08,0,0,0,.61,0l1.25,2,4-1.56-.51-2.41A7.34,7.34,0,0,0,19,42l2.32.55,1.75-4-2-1.34A14,14,0,0,0,21.07,35l2.11-1.25-1.57-3.9-2.4.51a7.43,7.43,0,0,0-1.64-1.68l.55-2.31-4-1.75-1.35,2c-.51-.05-1.09-.09-1.63-.09-.21,0-.41,0-.61,0L9.3,24.43Z"/><path class="cls-2" d="M11.67,31.78h.23a3.56,3.56,0,0,1,1.31.25,4.3,4.3,0,0,1,2.34,2.38,4,4,0,0,1-.06,3.15v0a4.17,4.17,0,0,1-3.91,2.64h-.23A3.3,3.3,0,0,1,10.07,40H10a4,4,0,0,1-2.36-2.34,3.74,3.74,0,0,1,.06-3.14l0,0,0-.05a4.16,4.16,0,0,1,3.91-2.63m0-1a5.19,5.19,0,0,0-4.84,3.27,4.75,4.75,0,0,0-.1,4,5,5,0,0,0,2.92,2.87,4.28,4.28,0,0,0,1.63.32h.28a5.28,5.28,0,0,0,2-10.14A4.3,4.3,0,0,0,12,30.78Z"/><line class="cls-3" x1="15.67" y1="4" x2="13.25" y2="4"/><line class="cls-3" x1="14.61" y1="7.82" x2="0.87" y2="7.82"/><line class="cls-3" x1="10.99" y1="11.65" x2="8.27" y2="11.65"/></g></g></svg>