<svg xmlns="http://www.w3.org/2000/svg" viewBox="0 0 37.67 50.43"><defs><style>.cls-1,.cls-2{fill:none;stroke:#fff;stroke-miterlimit:10;}.cls-2{stroke-linecap:round;}</style></defs><title>Optimizing-white</title><g id="Layer_2" data-name="Layer 2"><g id="Layer_1-2" data-name="Layer 1"><path class="cls-1" d="M5.86,18.94V6.82A6.33,6.33,0,0,1,12.17.5H25.49a6.33,6.33,0,0,1,6.32,6.32V18.94"/><path class="cls-1" d="M11.51,18.94V7.79a1.65,1.65,0,0,1,1.65-1.65H24.51a1.65,1.65,0,0,1,1.65,1.65V18.94"/><path class="cls-2" d="M.5,44v1.7a4.26,4.26,0,0,0,4.25,4.25H32.92a4.26,4.26,0,0,0,4.25-4.25V23.77a4.26,4.26,0,0,0-4.25-4.25H4.75A4.26,4.26,0,0,0,.5,23.77V44.2"/><line class="cls-2" x1="4.98" y1="24.26" x2="32.69" y2="24.26"/><line class="cls-2" x1="4.98" y1="45.45" x2="32.69" y2="45.45"/><path class="cls-1" d="M20.78,33.69V30A1.91,1.91,0,0,0,17,30v3.68a4.25,4.25,0,1,0,3.81,0Z"/><line class="cls-2" x1="29.22" y1="38.65" x2="32.89" y2="38.65"/><line class="cls-2" x1="29.22" y1="34.85" x2="32.89" y2="34.85"/><line class="cls-2" x1="29.22" y1="31.05" x2="32.89" y2="31.05"/><line class="cls-2" x1="4.98" y1="38.65" x2="8.65" y2="38.65"/><line class="cls-2" x1="4.98" y1="34.85" x2="8.65" y2="34.85"/><line class="cls-2" x1="4.98" y1="31.05" x2="8.65" y2="31.05"/></g></g></svg>