<svg xmlns="http://www.w3.org/2000/svg" viewBox="0 0 53.91 46.28"><defs><style>.cls-1,.cls-2,.cls-4,.cls-5{fill:none;stroke-miterlimit:10;}.cls-1,.cls-2{stroke:#272d43;}.cls-2,.cls-5{stroke-linecap:round;}.cls-3{fill:#81af41;}.cls-4{stroke:#ccc;}.cls-5{stroke:#80ae40;}</style></defs><title>problems-color</title><g id="Layer_2" data-name="Layer 2"><g id="Layer_1-2" data-name="Layer 1"><g id="Group_1698" data-name="Group 1698"><g id="Group_1699" data-name="Group 1699"><line id="Line_11" data-name="Line 11" class="cls-1" x1="0.41" y1="29.63" x2="52.89" y2="29.63"/><path id="Path_291" data-name="Path 291" class="cls-2" d="M50.39,38.31a3.12,3.12,0,0,0,2.14-.81,2.65,2.65,0,0,0,.88-2V3.35A3,3,0,0,0,50.4.5H3.51a2.94,2.94,0,0,0-3,2.78V35.46a2.62,2.62,0,0,0,.88,2,3.1,3.1,0,0,0,2.13.81Z"/><line id="Line_12" data-name="Line 12" class="cls-2" x1="31.61" y1="38.66" x2="31.61" y2="45.34"/><line id="Line_13" data-name="Line 13" class="cls-2" x1="22.65" y1="38.66" x2="22.65" y2="45.34"/><line id="Line_14" data-name="Line 14" class="cls-2" x1="16.47" y1="45.78" x2="38" y2="45.78"/><g id="Ellipse_24" data-name="Ellipse 24"><path class="cls-3" d="M27.07,33.48a.72.72,0,1,0,.78.71.75.75,0,0,0-.78-.71Z"/></g><line id="Line_15" data-name="Line 15" class="cls-4" x1="22.55" y1="6.27" x2="41.72" y2="6.27"/><line id="Line_16" data-name="Line 16" class="cls-4" x1="22.55" y1="9.66" x2="31.12" y2="9.66"/><path id="Path_292" data-name="Path 292" class="cls-5" d="M16.33,6,13.17,9l-1.1-1"/><line id="Line_17" data-name="Line 17" class="cls-4" x1="22.55" y1="13.98" x2="41.72" y2="13.98"/><line id="Line_18" data-name="Line 18" class="cls-4" x1="22.55" y1="17.37" x2="31.12" y2="17.37"/><path id="Path_293" data-name="Path 293" class="cls-5" d="M16.33,13.74l-3.16,2.92-1.1-1"/><line id="Line_19" data-name="Line 19" class="cls-4" x1="22.55" y1="21.69" x2="41.72" y2="21.69"/><line id="Line_20" data-name="Line 20" class="cls-4" x1="22.55" y1="25.08" x2="31.12" y2="25.08"/><path id="Path_294" data-name="Path 294" class="cls-5" d="M16.33,21.45l-3.16,2.92-1.1-1"/></g></g></g></g></svg>